<svg width="24" height="24" xmlns="http://www.w3.org/2000/svg" xmlns:xlink="http://www.w3.org/1999/xlink"><defs><path d="M23.265 2.893L21.143.771c-.943-.944-2.592-.944-3.536 0l-.707.707-14.637 14.64-.004.003-.003.004-.248.248a.499.499 0 0 0-.133.239L.358 23.077a.5.5 0 0 0 .601.601l6.466-1.517a.499.499 0 0 0 .239-.133l.246-.246.006-.004.004-.006L21.119 8.575c.004-.004.01-.005.014-.009.004-.004.005-.01.009-.014l1.407-1.406c.003-.003.008-.004.012-.008s.004-.008.008-.012l.698-.698a2.507 2.507 0 0 0-.002-3.535zm-2.487 4.608l-4.233-4.254.708-.708 4.244 4.244-.719.718zM7.561 20.717l-4.242-4.242L15.838 3.954l4.233 4.254-12.51 12.509zm-4.823-3.409l3.99 3.99-5.213 1.223 1.223-5.213zm19.82-11.586l-.354.354-4.244-4.244.354-.354c.565-.566 1.555-.567 2.122 0L22.558 3.6a1.504 1.504 0 0 1 0 2.122z" id="a"/></defs><g fill="#fff" fill-rule="evenodd"><mask id="b"><use xlink:href="#a"/></mask><use fill-rule="nonzero" xlink:href="#a"/><g mask="url(#b)"><path d="M0 24h24V0H0z"/></g></g></svg>